<?xml version="1.0" encoding="UTF-8"?>
<!DOCTYPE svg PUBLIC "-//W3C//DTD SVG 1.1//EN" "http://www.w3.org/Graphics/SVG/1.1/DTD/svg11.dtd">
<svg xmlns="http://www.w3.org/2000/svg" version="1.1" width="1254px" height="1254px" style="shape-rendering:geometricPrecision; text-rendering:geometricPrecision; image-rendering:optimizeQuality; fill-rule:evenodd; clip-rule:evenodd" xmlns:xlink="http://www.w3.org/1999/xlink">
<g><path style="opacity:1" fill="#000000" d="M -0.5,-0.5 C 417.5,-0.5 835.5,-0.5 1253.5,-0.5C 1253.5,417.5 1253.5,835.5 1253.5,1253.5C 835.5,1253.5 417.5,1253.5 -0.5,1253.5C -0.5,835.5 -0.5,417.5 -0.5,-0.5 Z"/></g>
<g><path style="opacity:1" fill="#c59b4a" d="M 570.5,212.5 C 569.733,213.172 569.066,214.005 568.5,215C 570.415,216.855 572.582,218.355 575,219.5C 575.507,220.996 575.007,222.163 573.5,223C 576.333,223.833 578.167,225.667 579,228.5C 579.333,227.833 579.667,227.167 580,226.5C 579.667,228.833 579.333,231.167 579,233.5C 579.333,233.167 579.667,232.833 580,232.5C 581.067,233.191 582.234,233.691 583.5,234C 581.567,234.251 579.734,234.751 578,235.5C 577.667,234.833 577.333,234.167 577,233.5C 575.908,235.131 575.075,236.798 574.5,238.5C 571.568,238.284 568.902,238.951 566.5,240.5C 564.06,239.107 561.393,238.273 558.5,238C 556.483,237.326 554.817,236.159 553.5,234.5C 552.038,235.471 550.705,235.138 549.5,233.5C 549.709,232.914 550.043,232.414 550.5,232C 549.406,229.11 548.24,226.277 547,223.5C 546.667,224.167 546.333,224.833 546,225.5C 545.667,224.167 545.333,222.833 545,221.5C 544.536,222.094 544.369,222.761 544.5,223.5C 541.257,211.053 538.757,198.386 537,185.5C 548.145,194.639 559.312,203.639 570.5,212.5 Z"/></g>
<g><path style="opacity:1" fill="#000000" d="M 615.5,505.5 C 613.804,505.685 612.471,506.519 611.5,508C 576.45,511.353 541.45,514.853 506.5,518.5C 505.544,520.075 504.877,521.742 504.5,523.5C 497.183,537.465 489.85,551.465 482.5,565.5C 468.421,565.815 454.421,565.482 440.5,564.5C 439.674,561.515 438.341,558.849 436.5,556.5C 431.95,546.4 427.117,536.4 422,526.5C 421.48,524.711 421.813,523.044 423,521.5C 447.246,487.341 471.246,453.008 495,418.5C 509,395.167 523,371.833 537,348.5C 554.084,338.041 571.25,327.708 588.5,317.5C 589.641,315.579 589.808,313.579 589,311.5C 585.351,294.084 581.518,276.751 577.5,259.5C 577.218,256.09 576.551,252.757 575.5,249.5C 576.002,248.479 576.668,248.312 577.5,249C 634.95,296.885 692.95,344.052 751.5,390.5C 706.122,428.886 660.789,467.219 615.5,505.5 Z"/></g>
<g><path style="opacity:1" fill="#c19c49" d="M 577.5,259.5 C 581.518,276.751 585.351,294.084 589,311.5C 589.808,313.579 589.641,315.579 588.5,317.5C 571.25,327.708 554.084,338.041 537,348.5C 523,371.833 509,395.167 495,418.5C 471.246,453.008 447.246,487.341 423,521.5C 421.813,523.044 421.48,524.711 422,526.5C 427.117,536.4 431.95,546.4 436.5,556.5C 434.876,556.64 433.71,555.973 433,554.5C 432.667,555.167 432.333,555.833 432,556.5C 431,555.167 430,555.167 429,556.5C 428.097,555.299 426.931,554.465 425.5,554C 426.993,552.844 426.826,552.01 425,551.5C 423.358,551.6 421.692,551.6 420,551.5C 419,550.5 418,549.5 417,548.5C 416.781,549.938 416.281,551.271 415.5,552.5C 414.391,549.892 412.724,547.726 410.5,546C 411.943,543.922 411.276,543.089 408.5,543.5C 408.643,541.738 408.309,540.071 407.5,538.5C 405.438,536.597 404.104,534.263 403.5,531.5C 402.893,531.624 402.56,531.957 402.5,532.5C 400.549,530.52 399.049,528.187 398,525.5C 397.333,524.5 397.333,523.5 398,522.5C 424.42,483.326 451.086,444.326 478,405.5C 491.588,380.659 504.921,355.659 518,330.5C 531.832,321.583 545.832,312.916 560,304.5C 558.5,293.493 556.667,282.493 554.5,271.5C 555.268,270.737 555.768,269.737 556,268.5C 558.104,274.677 559.271,280.844 559.5,287C 561.896,287.866 562.563,287.366 561.5,285.5C 564.028,284.184 564.028,283.017 561.5,282C 562.833,281.667 564.167,281.333 565.5,281C 564.21,276.203 565.044,271.369 568,266.5C 569.585,267.376 570.585,268.709 571,270.5C 573.214,266.064 574.88,261.397 576,256.5C 576.232,257.737 576.732,258.737 577.5,259.5 Z"/></g>
<g><path style="opacity:1" fill="#c5a04a" d="M 570.5,212.5 C 646.08,271.906 721.247,331.906 796,392.5C 813.406,450.882 830.906,509.215 848.5,567.5C 847.85,569.435 847.517,571.435 847.5,573.5C 846.5,573.5 845.5,573.5 844.5,573.5C 843.578,576.126 842.578,578.793 841.5,581.5C 843.117,584.622 842.45,587.122 839.5,589C 839.663,592.331 839.996,595.664 840.5,599C 839.773,600.399 839.273,601.899 839,603.5C 837.388,603.952 836.388,605.285 836,607.5C 835.691,606.234 835.191,605.067 834.5,604C 835.345,602.442 834.679,601.442 832.5,601C 833.337,599.989 833.67,598.822 833.5,597.5C 832.5,597.5 831.5,597.5 830.5,597.5C 811.163,533.827 791.663,470.16 772,406.5C 771.282,405.549 770.449,405.383 769.5,406C 724.708,442.456 680.208,479.289 636,516.5C 607.669,564.499 578.836,612.166 549.5,659.5C 594.167,696.5 638.833,733.5 683.5,770.5C 650.496,794.141 617.162,816.974 583.5,839C 605.539,816.961 627.539,794.961 649.5,773C 620.975,748.817 592.142,724.984 563,701.5C 537.667,735.5 512.333,769.5 487,803.5C 493.85,821.198 501.016,838.864 508.5,856.5C 601.001,857.832 693.668,857.832 786.5,856.5C 786.376,855.893 786.043,855.56 785.5,855.5C 771.971,823.958 758.638,792.458 745.5,761C 754.241,745.518 763.241,730.185 772.5,715C 735.167,685.667 697.833,656.333 660.5,627C 658.316,624.984 656.316,622.817 654.5,620.5C 694.542,582.79 735.209,545.79 776.5,509.5C 763.914,531.594 750.414,553.594 736,575.5C 720.02,589.646 704.52,604.313 689.5,619.5C 695.273,624.893 701.273,630.06 707.5,635C 733.309,654.642 758.976,674.475 784.5,694.5C 798.698,671.432 812.364,648.099 825.5,624.5C 829.175,624.246 832.009,622.58 834,619.5C 834.617,620.449 834.451,621.282 833.5,622C 834.866,623.6 835.866,625.433 836.5,627.5C 837.72,628.711 838.887,628.711 840,627.5C 840.991,628.939 842.324,629.939 844,630.5C 844.673,633.407 845.173,636.407 845.5,639.5C 819.76,684.646 793.76,729.646 767.5,774.5C 780.762,801.117 793.928,827.784 807,854.5C 807.667,856.167 807.667,857.833 807,859.5C 800.799,867.403 794.965,875.569 789.5,884C 680.498,884.833 571.498,884.667 462.5,883.5C 456.716,875.063 451.383,866.396 446.5,857.5C 459.85,857.833 473.183,857.499 486.5,856.5C 486.376,855.893 486.043,855.56 485.5,855.5C 477.266,838.699 468.766,822.033 460,805.5C 459.333,804.167 459.333,802.833 460,801.5C 488.333,764.167 516.667,726.833 545,689.5C 545.749,688.365 545.583,687.365 544.5,686.5C 535.142,678.803 525.809,671.137 516.5,663.5C 544.879,619.238 573.879,575.404 603.5,532C 578.835,532.868 554.169,534.035 529.5,535.5C 526.813,535.664 524.146,535.497 521.5,535C 525.223,534.566 525.39,533.732 522,532.5C 515.5,533.002 509.5,533.002 504,532.5C 503.996,530.632 504.496,528.798 505.5,527C 505.011,525.862 504.678,524.695 504.5,523.5C 506.781,522.793 508.948,521.793 511,520.5C 513.932,521.78 514.765,523.78 513.5,526.5C 514.429,529.943 516.429,531.276 519.5,530.5C 518.5,529.833 517.5,529.167 516.5,528.5C 517.167,528.167 517.833,527.833 518.5,527.5C 526.296,525.745 533.963,523.745 541.5,521.5C 544.724,521.677 547.891,521.677 551,521.5C 559.054,524.391 567.054,526.391 575,527.5C 577.204,524.267 580.038,523.6 583.5,525.5C 588.249,524.36 592.916,523.027 597.5,521.5C 601.494,522.38 605.494,523.213 609.5,524C 610.931,524.465 612.097,525.299 613,526.5C 613.915,525.672 614.581,524.672 615,523.5C 615.333,523.833 615.667,524.167 616,524.5C 616.36,522.579 617.194,520.912 618.5,519.5C 617.691,517.929 617.357,516.262 617.5,514.5C 615.876,514.36 614.71,515.027 614,516.5C 613.5,515.5 613,514.5 612.5,513.5C 614.318,512.226 615.985,510.726 617.5,509C 616.747,507.513 615.914,507.346 615,508.5C 614.53,507.423 614.697,506.423 615.5,505.5C 660.789,467.219 706.122,428.886 751.5,390.5C 692.95,344.052 634.95,296.885 577.5,249C 576.668,248.312 576.002,248.479 575.5,249.5C 576.551,252.757 577.218,256.09 577.5,259.5C 576.732,258.737 576.232,257.737 576,256.5C 574.88,261.397 573.214,266.064 571,270.5C 570.585,268.709 569.585,267.376 568,266.5C 565.044,271.369 564.21,276.203 565.5,281C 564.167,281.333 562.833,281.667 561.5,282C 564.028,283.017 564.028,284.184 561.5,285.5C 562.563,287.366 561.896,287.866 559.5,287C 559.271,280.844 558.104,274.677 556,268.5C 555.768,269.737 555.268,270.737 554.5,271.5C 550.532,255.66 547.198,239.66 544.5,223.5C 544.369,222.761 544.536,222.094 545,221.5C 545.333,222.833 545.667,224.167 546,225.5C 546.333,224.833 546.667,224.167 547,223.5C 548.24,226.277 549.406,229.11 550.5,232C 550.043,232.414 549.709,232.914 549.5,233.5C 550.705,235.138 552.038,235.471 553.5,234.5C 554.817,236.159 556.483,237.326 558.5,238C 561.393,238.273 564.06,239.107 566.5,240.5C 568.902,238.951 571.568,238.284 574.5,238.5C 575.075,236.798 575.908,235.131 577,233.5C 577.333,234.167 577.667,234.833 578,235.5C 579.734,234.751 581.567,234.251 583.5,234C 582.234,233.691 581.067,233.191 580,232.5C 579.667,232.833 579.333,233.167 579,233.5C 579.333,231.167 579.667,228.833 580,226.5C 579.667,227.167 579.333,227.833 579,228.5C 578.167,225.667 576.333,223.833 573.5,223C 575.007,222.163 575.507,220.996 575,219.5C 572.582,218.355 570.415,216.855 568.5,215C 569.066,214.005 569.733,213.172 570.5,212.5 Z"/></g>
<g><path style="opacity:1" fill="#493718" d="M 530.5,390.5 C 547.671,389.173 565.005,389.173 582.5,390.5C 582.376,391.107 582.043,391.44 581.5,391.5C 564.675,390.503 547.675,390.17 530.5,390.5 Z"/></g>
<g><path style="opacity:1" fill="#c09c4a" d="M 530.5,390.5 C 547.675,390.17 564.675,390.503 581.5,391.5C 558.221,404.142 534.887,416.809 511.5,429.5C 511.167,429.167 510.833,428.833 510.5,428.5C 516.656,415.519 523.323,402.852 530.5,390.5 Z"/></g>
<g><path style="opacity:1" fill="#010000" d="M 830.5,597.5 C 831.492,601.482 832.492,605.482 833.5,609.5C 831.093,614.649 828.426,619.649 825.5,624.5C 812.364,648.099 798.698,671.432 784.5,694.5C 758.976,674.475 733.309,654.642 707.5,635C 701.273,630.06 695.273,624.893 689.5,619.5C 704.52,604.313 720.02,589.646 736,575.5C 750.414,553.594 763.914,531.594 776.5,509.5C 735.209,545.79 694.542,582.79 654.5,620.5C 656.316,622.817 658.316,624.984 660.5,627C 697.833,656.333 735.167,685.667 772.5,715C 763.241,730.185 754.241,745.518 745.5,761C 758.638,792.458 771.971,823.958 785.5,855.5C 693.335,856.499 601.002,856.833 508.5,856.5C 501.016,838.864 493.85,821.198 487,803.5C 512.333,769.5 537.667,735.5 563,701.5C 592.142,724.984 620.975,748.817 649.5,773C 627.539,794.961 605.539,816.961 583.5,839C 617.162,816.974 650.496,794.141 683.5,770.5C 638.833,733.5 594.167,696.5 549.5,659.5C 578.836,612.166 607.669,564.499 636,516.5C 680.208,479.289 724.708,442.456 769.5,406C 770.449,405.383 771.282,405.549 772,406.5C 791.663,470.16 811.163,533.827 830.5,597.5 Z"/></g>
<g><path style="opacity:1" fill="#c39a48" d="M 615.5,505.5 C 614.697,506.423 614.53,507.423 615,508.5C 615.914,507.346 616.747,507.513 617.5,509C 615.985,510.726 614.318,512.226 612.5,513.5C 613,514.5 613.5,515.5 614,516.5C 614.71,515.027 615.876,514.36 617.5,514.5C 617.357,516.262 617.691,517.929 618.5,519.5C 617.194,520.912 616.36,522.579 616,524.5C 615.667,524.167 615.333,523.833 615,523.5C 614.581,524.672 613.915,525.672 613,526.5C 612.097,525.299 610.931,524.465 609.5,524C 605.494,523.213 601.494,522.38 597.5,521.5C 592.916,523.027 588.249,524.36 583.5,525.5C 580.038,523.6 577.204,524.267 575,527.5C 567.054,526.391 559.054,524.391 551,521.5C 547.891,521.677 544.724,521.677 541.5,521.5C 533.963,523.745 526.296,525.745 518.5,527.5C 517.833,527.833 517.167,528.167 516.5,528.5C 517.5,529.167 518.5,529.833 519.5,530.5C 516.429,531.276 514.429,529.943 513.5,526.5C 514.765,523.78 513.932,521.78 511,520.5C 508.948,521.793 506.781,522.793 504.5,523.5C 504.877,521.742 505.544,520.075 506.5,518.5C 541.45,514.853 576.45,511.353 611.5,508C 612.471,506.519 613.804,505.685 615.5,505.5 Z"/></g>
<g><path style="opacity:1" fill="#c19c4a" d="M 504.5,523.5 C 504.678,524.695 505.011,525.862 505.5,527C 504.496,528.798 503.996,530.632 504,532.5C 509.5,533.002 515.5,533.002 522,532.5C 525.39,533.732 525.223,534.566 521.5,535C 524.146,535.497 526.813,535.664 529.5,535.5C 526.642,536.166 523.642,536.833 520.5,537.5C 512.124,552.927 503.79,568.26 495.5,583.5C 495.631,582.761 495.464,582.094 495,581.5C 494.653,583.18 493.653,584.18 492,584.5C 487.499,583.916 482.999,583.249 478.5,582.5C 479.729,581.719 481.062,581.219 482.5,581C 477.787,579.81 473.453,577.81 469.5,575C 468.167,574 468.167,573 469.5,572C 462.197,569.137 454.864,568.637 447.5,570.5C 445.5,570.167 443.5,569.833 441.5,569.5C 441.291,568.914 440.957,568.414 440.5,568C 454.673,567.831 468.673,567.331 482.5,566.5C 482.5,566.167 482.5,565.833 482.5,565.5C 489.85,551.465 497.183,537.465 504.5,523.5 Z"/></g>
<g><path style="opacity:1" fill="#c59f4a" d="M 436.5,556.5 C 438.341,558.849 439.674,561.515 440.5,564.5C 454.127,566.482 468.127,567.149 482.5,566.5C 468.673,567.331 454.673,567.831 440.5,568C 440.957,568.414 441.291,568.914 441.5,569.5C 443.5,569.833 445.5,570.167 447.5,570.5C 454.864,568.637 462.197,569.137 469.5,572C 468.167,573 468.167,574 469.5,575C 473.453,577.81 477.787,579.81 482.5,581C 481.062,581.219 479.729,581.719 478.5,582.5C 482.999,583.249 487.499,583.916 492,584.5C 493.653,584.18 494.653,583.18 495,581.5C 495.464,582.094 495.631,582.761 495.5,583.5C 495.196,584.15 494.863,584.817 494.5,585.5C 472.5,586.833 450.5,586.833 428.5,585.5C 419.55,567.934 410.884,550.268 402.5,532.5C 402.56,531.957 402.893,531.624 403.5,531.5C 404.104,534.263 405.438,536.597 407.5,538.5C 408.309,540.071 408.643,541.738 408.5,543.5C 411.276,543.089 411.943,543.922 410.5,546C 412.724,547.726 414.391,549.892 415.5,552.5C 416.281,551.271 416.781,549.938 417,548.5C 418,549.5 419,550.5 420,551.5C 421.692,551.6 423.358,551.6 425,551.5C 426.826,552.01 426.993,552.844 425.5,554C 426.931,554.465 428.097,555.299 429,556.5C 430,555.167 431,555.167 432,556.5C 432.333,555.833 432.667,555.167 433,554.5C 433.71,555.973 434.876,556.64 436.5,556.5 Z"/></g>
<g><path style="opacity:1" fill="#866b32" d="M 440.5,564.5 C 454.421,565.482 468.421,565.815 482.5,565.5C 482.5,565.833 482.5,566.167 482.5,566.5C 468.127,567.149 454.127,566.482 440.5,564.5 Z"/></g>
<g><path style="opacity:1" fill="#c19b4a" d="M 848.5,567.5 C 852.915,581.534 857.248,595.701 861.5,610C 857.078,620.344 851.745,630.177 845.5,639.5C 845.173,636.407 844.673,633.407 844,630.5C 842.324,629.939 840.991,628.939 840,627.5C 838.887,628.711 837.72,628.711 836.5,627.5C 835.866,625.433 834.866,623.6 833.5,622C 834.451,621.282 834.617,620.449 834,619.5C 832.009,622.58 829.175,624.246 825.5,624.5C 828.426,619.649 831.093,614.649 833.5,609.5C 832.492,605.482 831.492,601.482 830.5,597.5C 831.5,597.5 832.5,597.5 833.5,597.5C 833.67,598.822 833.337,599.989 832.5,601C 834.679,601.442 835.345,602.442 834.5,604C 835.191,605.067 835.691,606.234 836,607.5C 836.388,605.285 837.388,603.952 839,603.5C 839.273,601.899 839.773,600.399 840.5,599C 839.996,595.664 839.663,592.331 839.5,589C 842.45,587.122 843.117,584.622 841.5,581.5C 842.578,578.793 843.578,576.126 844.5,573.5C 845.5,573.5 846.5,573.5 847.5,573.5C 847.517,571.435 847.85,569.435 848.5,567.5 Z"/></g>
<g><path style="opacity:1" fill="#463514" d="M 485.5,855.5 C 486.043,855.56 486.376,855.893 486.5,856.5C 473.183,857.499 459.85,857.833 446.5,857.5C 459.5,856.833 472.5,856.167 485.5,855.5 Z"/></g>
<g><path style="opacity:1" fill="#493614" d="M 785.5,855.5 C 786.043,855.56 786.376,855.893 786.5,856.5C 693.668,857.832 601.001,857.832 508.5,856.5C 601.002,856.833 693.335,856.499 785.5,855.5 Z"/></g>
<g><path style="opacity:1" fill="#2c2109" d="M 459.5,900.5 C 470.674,899.176 482.007,899.176 493.5,900.5C 493.376,901.107 493.043,901.44 492.5,901.5C 481.679,900.505 470.679,900.172 459.5,900.5 Z"/></g>
<g><path style="opacity:1" fill="#c6a04a" d="M 809.5,917.5 C 810.171,918.847 810.171,920.014 809.5,921C 816.415,927.677 816.082,928.51 808.5,923.5C 806.604,922.534 804.604,922.201 802.5,922.5C 802.055,925.365 802.722,927.865 804.5,930C 803.672,932.836 803.672,935.836 804.5,939C 804.333,939.5 804.167,940 804,940.5C 802.363,938.394 800.53,937.728 798.5,938.5C 784.116,926.635 770.116,914.302 756.5,901.5C 767.819,900.334 779.152,900.168 790.5,901C 796.73,906.738 803.064,912.238 809.5,917.5 Z"/></g>
<g><path style="opacity:1" fill="#c39d4a" d="M 459.5,900.5 C 470.679,900.172 481.679,900.505 492.5,901.5C 476.822,915.844 460.822,929.844 444.5,943.5C 443.167,944.167 443.167,944.833 444.5,945.5C 443.398,947.092 444.065,947.925 446.5,948C 445.5,948.333 444.5,948.667 443.5,949C 444.667,949.5 445.5,950.333 446,951.5C 453.901,949.713 462.068,948.88 470.5,949C 462.833,948.667 455.167,948.333 447.5,948C 468.164,947.5 488.831,947.333 509.5,947.5C 502.011,948.329 494.344,948.829 486.5,949C 491.529,948.926 496.195,950.093 500.5,952.5C 495.109,956.014 489.109,958.181 482.5,959C 475.647,959.279 469.147,959.779 463,960.5C 457.545,957.979 452.211,955.313 447,952.5C 444.884,953.69 442.884,955.023 441,956.5C 440,956.167 439,955.833 438,955.5C 437,958.167 436,958.167 435,955.5C 434.355,956.646 433.522,957.646 432.5,958.5C 432.709,959.086 433.043,959.586 433.5,960C 430.293,962.718 426.627,963.718 422.5,963C 417.541,961.377 412.875,959.544 408.5,957.5C 407.575,958.641 406.741,958.641 406,957.5C 405.079,958.708 404.579,960.042 404.5,961.5C 401.881,958.266 400.381,954.6 400,950.5C 419.999,933.998 439.832,917.332 459.5,900.5 Z"/></g>
<g><path style="opacity:1" fill="#c39c4a" d="M 809.5,917.5 C 823.021,928.764 836.354,940.264 849.5,952C 847.107,957.301 844.107,962.134 840.5,966.5C 836.5,966.5 832.5,966.5 828.5,966.5C 820.677,965.671 812.677,965.171 804.5,965C 805.167,964.667 805.833,964.333 806.5,964C 802.809,959.402 797.975,957.235 792,957.5C 786.171,960.002 780.171,960.669 774,959.5C 771.776,957.274 769.276,955.441 766.5,954C 765.167,952.16 765.334,951.66 767,952.5C 771.491,950.15 776.324,948.983 781.5,949C 720.833,948.333 660.167,948.333 599.5,949C 606.375,948.588 612.708,950.088 618.5,953.5C 613.257,956.181 607.757,958.181 602,959.5C 593.695,957.55 585.528,955.216 577.5,952.5C 578.167,951.833 578.833,951.167 579.5,950.5C 584.383,949.809 589.216,949.143 594,948.5C 594.333,948.833 594.667,949.167 595,949.5C 596.302,948.915 597.469,948.249 598.5,947.5C 667.282,947.461 735.782,947.461 804,947.5C 804.464,946.906 804.631,946.239 804.5,945.5C 804.672,944.508 804.338,943.842 803.5,943.5C 801.5,942.167 799.833,940.5 798.5,938.5C 800.53,937.728 802.363,938.394 804,940.5C 804.167,940 804.333,939.5 804.5,939C 803.672,935.836 803.672,932.836 804.5,930C 802.722,927.865 802.055,925.365 802.5,922.5C 804.604,922.201 806.604,922.534 808.5,923.5C 816.082,928.51 816.415,927.677 809.5,921C 810.171,920.014 810.171,918.847 809.5,917.5 Z"/></g>
<g><path style="opacity:1" fill="#5a491f" d="M 444.5,943.5 C 564.167,944.833 683.833,944.833 803.5,943.5C 804.338,943.842 804.672,944.508 804.5,945.5C 684.5,945.5 564.5,945.5 444.5,945.5C 443.167,944.833 443.167,944.167 444.5,943.5 Z"/></g>
<g><path style="opacity:1" fill="#d0a54a" d="M 444.5,945.5 C 564.5,945.5 684.5,945.5 804.5,945.5C 804.631,946.239 804.464,946.906 804,947.5C 735.782,947.461 667.282,947.461 598.5,947.5C 568.82,947.025 539.153,947.025 509.5,947.5C 488.831,947.333 468.164,947.5 447.5,948C 455.167,948.333 462.833,948.667 470.5,949C 462.068,948.88 453.901,949.713 446,951.5C 445.5,950.333 444.667,949.5 443.5,949C 444.5,948.667 445.5,948.333 446.5,948C 444.065,947.925 443.398,947.092 444.5,945.5 Z"/></g>
<g><path style="opacity:1" fill="#c7a04b" d="M 598.5,947.5 C 597.469,948.249 596.302,948.915 595,949.5C 594.667,949.167 594.333,948.833 594,948.5C 589.216,949.143 584.383,949.809 579.5,950.5C 578.833,951.167 578.167,951.833 577.5,952.5C 585.528,955.216 593.695,957.55 602,959.5C 607.757,958.181 613.257,956.181 618.5,953.5C 612.708,950.088 606.375,948.588 599.5,949C 660.167,948.333 720.833,948.333 781.5,949C 776.324,948.983 771.491,950.15 767,952.5C 765.334,951.66 765.167,952.16 766.5,954C 769.276,955.441 771.776,957.274 774,959.5C 780.171,960.669 786.171,960.002 792,957.5C 797.975,957.235 802.809,959.402 806.5,964C 805.833,964.333 805.167,964.667 804.5,965C 812.677,965.171 820.677,965.671 828.5,966.5C 687.862,966.497 547.528,966.497 407.5,966.5C 406.263,965.035 405.263,963.368 404.5,961.5C 404.579,960.042 405.079,958.708 406,957.5C 406.741,958.641 407.575,958.641 408.5,957.5C 412.875,959.544 417.541,961.377 422.5,963C 426.627,963.718 430.293,962.718 433.5,960C 433.043,959.586 432.709,959.086 432.5,958.5C 433.522,957.646 434.355,956.646 435,955.5C 436,958.167 437,958.167 438,955.5C 439,955.833 440,956.167 441,956.5C 442.884,955.023 444.884,953.69 447,952.5C 452.211,955.313 457.545,957.979 463,960.5C 469.147,959.779 475.647,959.279 482.5,959C 489.109,958.181 495.109,956.014 500.5,952.5C 496.195,950.093 491.529,948.926 486.5,949C 494.344,948.829 502.011,948.329 509.5,947.5C 539.153,947.025 568.82,947.025 598.5,947.5 Z"/></g>
<g><path style="opacity:1" fill="#c2a04f" d="M 828.5,966.5 C 832.5,966.5 836.5,966.5 840.5,966.5C 768.67,967.833 696.503,968.5 624,968.5C 551.497,968.5 479.33,967.833 407.5,966.5C 547.528,966.497 687.862,966.497 828.5,966.5 Z"/></g>
<g><path style="opacity:1" fill="#4c3c19" d="M 418.5,984.5 C 425.313,983.509 432.313,983.175 439.5,983.5C 439.737,984.791 439.404,985.791 438.5,986.5C 432.25,984.541 425.584,983.874 418.5,984.5 Z"/></g>
<g><path style="opacity:1" fill="#4c3d1b" d="M 829.5,984.5 C 822.646,984.176 815.979,984.509 809.5,985.5C 808.957,985.44 808.624,985.107 808.5,984.5C 815.656,983.181 822.656,983.181 829.5,984.5 Z"/></g>
<g><path style="opacity:1" fill="#c8a24c" d="M 418.5,984.5 C 425.584,983.874 432.25,984.541 438.5,986.5C 431.246,999.341 424.246,1012.34 417.5,1025.5C 416.957,1025.56 416.624,1025.89 416.5,1026.5C 554.498,1027.5 692.498,1027.83 830.5,1027.5C 692.667,1028.33 554.667,1028.83 416.5,1029C 426.833,1029.33 437.167,1029.67 447.5,1030C 446.241,1030.92 444.908,1031.76 443.5,1032.5C 445.012,1033.86 446.512,1034.2 448,1033.5C 449.463,1036.18 451.463,1037.18 454,1036.5C 466.312,1042.02 478.312,1041.36 490,1034.5C 492.935,1035.1 495.602,1035.1 498,1034.5C 499.951,1032.86 499.784,1031.36 497.5,1030C 507.5,1029.33 517.5,1029.33 527.5,1030C 525.641,1030.68 523.974,1031.68 522.5,1033C 525.442,1034.67 528.442,1036.34 531.5,1038C 538.818,1038.72 546.152,1039.22 553.5,1039.5C 558.188,1039.71 562.688,1039.05 567,1037.5C 568.016,1038.63 568.683,1038.3 569,1036.5C 573.892,1036.45 578.892,1036.78 584,1037.5C 589.111,1037.32 594.111,1036.65 599,1035.5C 603.211,1038.19 607.711,1040.19 612.5,1041.5C 622.305,1037.71 632.139,1036.38 642,1037.5C 646.401,1036.82 650.734,1035.82 655,1034.5C 657.045,1036.36 659.379,1037.69 662,1038.5C 664.056,1038.04 666.389,1037.37 669,1036.5C 677.242,1039.7 685.742,1041.2 694.5,1041C 699.136,1037.88 704.469,1035.22 710.5,1033C 709.167,1032 707.833,1031 706.5,1030C 719.167,1029.33 731.833,1029.33 744.5,1030C 742.579,1030.36 740.912,1031.19 739.5,1032.5C 741.535,1034.19 743.868,1035.53 746.5,1036.5C 748.061,1035.65 749.561,1035.99 751,1037.5C 753.098,1035.95 755.432,1034.95 758,1034.5C 761.482,1035.97 764.982,1037.47 768.5,1039C 773.22,1039.22 777.887,1039.72 782.5,1040.5C 790.04,1040.42 798.373,1039.92 807.5,1039C 809.848,1038.89 811.348,1037.72 812,1035.5C 813.343,1036.21 814.676,1035.88 816,1034.5C 822.208,1035.02 828.041,1037.19 833.5,1041C 838.707,1040.71 843.041,1042.37 846.5,1046C 848.5,1046.33 850.5,1046.67 852.5,1047C 850.942,1047.21 849.609,1047.71 848.5,1048.5C 696.167,1048.5 543.833,1048.5 391.5,1048.5C 391.827,1038.32 391.494,1028.32 390.5,1018.5C 390.5,1018.17 390.5,1017.83 390.5,1017.5C 399.833,1006.5 409.167,995.5 418.5,984.5 Z"/></g>
<g><path style="opacity:1" fill="#c39c49" d="M 829.5,984.5 C 838.804,995.475 848.137,1006.47 857.5,1017.5C 856.506,1027.65 856.172,1037.99 856.5,1048.5C 853.833,1048.5 851.167,1048.5 848.5,1048.5C 849.609,1047.71 850.942,1047.21 852.5,1047C 850.5,1046.67 848.5,1046.33 846.5,1046C 843.041,1042.37 838.707,1040.71 833.5,1041C 828.041,1037.19 822.208,1035.02 816,1034.5C 814.676,1035.88 813.343,1036.21 812,1035.5C 811.348,1037.72 809.848,1038.89 807.5,1039C 798.373,1039.92 790.04,1040.42 782.5,1040.5C 777.887,1039.72 773.22,1039.22 768.5,1039C 764.982,1037.47 761.482,1035.97 758,1034.5C 755.432,1034.95 753.098,1035.95 751,1037.5C 749.561,1035.99 748.061,1035.65 746.5,1036.5C 743.868,1035.53 741.535,1034.19 739.5,1032.5C 740.912,1031.19 742.579,1030.36 744.5,1030C 731.833,1029.33 719.167,1029.33 706.5,1030C 707.833,1031 709.167,1032 710.5,1033C 704.469,1035.22 699.136,1037.88 694.5,1041C 685.742,1041.2 677.242,1039.7 669,1036.5C 666.389,1037.37 664.056,1038.04 662,1038.5C 659.379,1037.69 657.045,1036.36 655,1034.5C 650.734,1035.82 646.401,1036.82 642,1037.5C 632.139,1036.38 622.305,1037.71 612.5,1041.5C 607.711,1040.19 603.211,1038.19 599,1035.5C 594.111,1036.65 589.111,1037.32 584,1037.5C 578.892,1036.78 573.892,1036.45 569,1036.5C 568.683,1038.3 568.016,1038.63 567,1037.5C 562.688,1039.05 558.188,1039.71 553.5,1039.5C 546.152,1039.22 538.818,1038.72 531.5,1038C 528.442,1036.34 525.442,1034.67 522.5,1033C 523.974,1031.68 525.641,1030.68 527.5,1030C 517.5,1029.33 507.5,1029.33 497.5,1030C 499.784,1031.36 499.951,1032.86 498,1034.5C 495.602,1035.1 492.935,1035.1 490,1034.5C 478.312,1041.36 466.312,1042.02 454,1036.5C 451.463,1037.18 449.463,1036.18 448,1033.5C 446.512,1034.2 445.012,1033.86 443.5,1032.5C 444.908,1031.76 446.241,1030.92 447.5,1030C 437.167,1029.67 426.833,1029.33 416.5,1029C 554.667,1028.83 692.667,1028.33 830.5,1027.5C 830.5,1027.17 830.5,1026.83 830.5,1026.5C 823.229,1012.96 816.229,999.292 809.5,985.5C 815.979,984.509 822.646,984.176 829.5,984.5 Z"/></g>
<g><path style="opacity:1" fill="#877132" d="M 390.5,1017.5 C 390.5,1017.83 390.5,1018.17 390.5,1018.5C 390.5,1028.83 390.5,1039.17 390.5,1049.5C 546.167,1049.5 701.833,1049.5 857.5,1049.5C 857.5,1038.83 857.5,1028.17 857.5,1017.5C 858.495,1028.32 858.828,1039.32 858.5,1050.5C 702.167,1050.5 545.833,1050.5 389.5,1050.5C 389.172,1039.32 389.505,1028.32 390.5,1017.5 Z"/></g>
<g><path style="opacity:1" fill="#e0ba5a" d="M 857.5,1017.5 C 857.5,1028.17 857.5,1038.83 857.5,1049.5C 701.833,1049.5 546.167,1049.5 390.5,1049.5C 390.5,1039.17 390.5,1028.83 390.5,1018.5C 391.494,1028.32 391.827,1038.32 391.5,1048.5C 543.833,1048.5 696.167,1048.5 848.5,1048.5C 851.167,1048.5 853.833,1048.5 856.5,1048.5C 856.172,1037.99 856.506,1027.65 857.5,1017.5 Z"/></g>
<g><path style="opacity:1" fill="#7c642a" d="M 417.5,1025.5 C 554.999,1026.5 692.666,1026.83 830.5,1026.5C 830.5,1026.83 830.5,1027.17 830.5,1027.5C 692.498,1027.83 554.498,1027.5 416.5,1026.5C 416.624,1025.89 416.957,1025.56 417.5,1025.5 Z"/></g>
</svg>
